<svg width="19" height="15" viewBox="0 0 19 15" fill="none" xmlns="http://www.w3.org/2000/svg">
<path d="M11.7339 0.674337C10.8368 1.42108 10.3885 2.45969 10.5109 3.50766L10.4899 3.49025C10.6157 4.72348 10.078 5.9399 9.02032 6.81503C7.96258 7.69017 6.49236 8.13501 5.0018 8.03091L5.02285 8.04832C3.21813 7.90934 1.50184 8.72154 0.731653 10.079C-0.0385311 11.4365 1.21893 11.9856 2.50116 13.0456C3.78339 14.1055 4.81505 15.4486 6.4551 14.8102C8.09515 14.1717 9.07527 12.751 8.90566 11.2579L8.92787 11.2753C8.80205 10.0421 9.33971 8.82569 10.3974 7.95056C11.4552 7.07542 12.9254 6.63058 14.416 6.73468L14.3937 6.71727C16.3772 6.86485 18.2228 5.86424 18.851 4.30071C19.4793 2.73718 18.0101 2.0697 16.3147 1.20539C14.6192 0.341086 13.1428 -0.492992 11.7374 0.674337H11.7339Z" fill="white"/>
</svg>
