<svg width="108" height="87" viewBox="0 0 108 87" fill="none" xmlns="http://www.w3.org/2000/svg">
<path d="M101.499 1.79698e-05H88.1661V10C88.1661 10.963 87.9765 11.9166 87.6079 12.8064C87.2394 13.6961 86.6992 14.5045 86.0183 15.1855C85.3373 15.8664 84.5289 16.4066 83.6392 16.7751C82.7494 17.1437 81.7958 17.3334 80.8328 17.3334C79.8698 17.3334 78.9162 17.1437 78.0265 16.7751C77.1367 16.4066 76.3283 15.8664 75.6474 15.1855C74.9664 14.5045 74.4262 13.6961 74.0577 12.8064C73.6892 11.9166 73.4995 10.963 73.4995 10V1.79698e-05H34.6661V10C34.6661 11.9449 33.8935 13.8102 32.5183 15.1855C31.143 16.5607 29.2777 17.3334 27.3328 17.3334C25.3879 17.3334 23.5226 16.5607 22.1474 15.1855C20.7721 13.8102 19.9995 11.9449 19.9995 10V1.79698e-05H6.66614C5.87288 -0.00900914 5.08587 0.14113 4.35165 0.441558C3.61743 0.741986 2.95091 1.1866 2.39152 1.7491C1.83212 2.31161 1.39121 2.98058 1.09485 3.71645C0.798496 4.45233 0.652718 5.24016 0.66614 6.03335V80.6334C0.652897 81.4126 0.793287 82.1867 1.07929 82.9117C1.3653 83.6366 1.79132 84.2981 2.33301 84.8584C2.87471 85.4187 3.52147 85.8667 4.23636 86.177C4.95125 86.4873 5.72026 86.6537 6.49947 86.6667H101.499C102.279 86.6537 103.048 86.4873 103.763 86.177C104.477 85.8667 105.124 85.4187 105.666 84.8584C106.208 84.2981 106.634 83.6366 106.92 82.9117C107.206 82.1867 107.346 81.4126 107.333 80.6334V6.03335C107.346 5.25415 107.206 4.47996 106.92 3.75502C106.634 3.03008 106.208 2.36859 105.666 1.80832C105.124 1.24805 104.477 0.799983 103.763 0.489711C103.048 0.179439 102.279 0.01304 101.499 1.79698e-05ZM27.3328 66.6667H20.6661V60H27.3328V66.6667ZM27.3328 50H20.6661V43.3334H27.3328V50ZM27.3328 33.3334H20.6661V26.6667H27.3328V33.3334ZM47.3328 66.6667H40.6661V60H47.3328V66.6667ZM47.3328 50H40.6661V43.3334H47.3328V50ZM47.3328 33.3334H40.6661V26.6667H47.3328V33.3334ZM67.3328 66.6667H60.6661V60H67.3328V66.6667ZM67.3328 50H60.6661V43.3334H67.3328V50ZM67.3328 33.3334H60.6661V26.6667H67.3328V33.3334ZM87.3328 66.6667H80.6661V60H87.3328V66.6667ZM87.3328 50H80.6661V43.3334H87.3328V50ZM87.3328 33.3334H80.6661V26.6667H87.3328V33.3334Z" fill="#131316" fill-opacity="0.05"/>
</svg>
