<svg width="19" height="20" viewBox="0 0 19 20" fill="none" xmlns="http://www.w3.org/2000/svg">
<path fill-rule="evenodd" clip-rule="evenodd" d="M9.33341 0.833252C4.27091 0.833252 0.166748 4.93742 0.166748 9.99992C0.166748 15.0624 4.27091 19.1666 9.33341 19.1666C14.3959 19.1666 18.5001 15.0624 18.5001 9.99992C18.5001 4.93742 14.3959 0.833252 9.33341 0.833252ZM13.3067 8.44992C13.3799 8.36629 13.4356 8.26887 13.4706 8.16339C13.5055 8.05792 13.519 7.94651 13.5103 7.83574C13.5016 7.72496 13.4708 7.61705 13.4197 7.51836C13.3687 7.41966 13.2984 7.33217 13.213 7.26104C13.1277 7.1899 13.0289 7.13655 12.9227 7.10414C12.8164 7.07172 12.7047 7.06089 12.5941 7.07227C12.4836 7.08366 12.3765 7.11704 12.279 7.17045C12.1816 7.22385 12.0958 7.29621 12.0267 7.38325L8.44341 11.6824L6.58925 9.82742C6.43208 9.67562 6.22158 9.59162 6.00308 9.59352C5.78458 9.59542 5.57557 9.68306 5.42107 9.83757C5.26656 9.99208 5.17892 10.2011 5.17702 10.4196C5.17512 10.6381 5.25912 10.8486 5.41091 11.0058L7.91091 13.5058C7.99279 13.5876 8.09083 13.6515 8.19876 13.6933C8.30669 13.7351 8.42216 13.754 8.5378 13.7488C8.65345 13.7435 8.76673 13.7142 8.87042 13.6628C8.97412 13.6113 9.06596 13.5388 9.14008 13.4499L13.3067 8.44992Z" fill="#131316"/>
</svg>
