<svg width="26" height="26" viewBox="0 0 26 26" fill="none" xmlns="http://www.w3.org/2000/svg">
<path d="M11.8828 1.44726C10.3848 1.70117 9.17109 2.31562 8.09453 3.36172C7.81523 3.63594 7.45469 4.03711 7.29727 4.26055C5.69766 6.47461 5.54023 9.27266 6.85039 11.959C7.24648 12.7613 7.56133 13.193 8.80039 14.625L9.83125 15.8184L8.03867 15.8437L6.24609 15.8691L6.12422 15.9961C6.02773 16.0926 5.71289 17.0117 4.77852 19.891C4.10312 21.9629 3.55469 23.7047 3.55469 23.7656C3.55469 23.9383 3.69687 24.1617 3.85937 24.248C3.99141 24.3141 5.06289 24.3242 13.0355 24.3242C21.1402 24.3242 22.0797 24.3141 22.1812 24.243C22.3184 24.1465 22.4453 23.9129 22.4453 23.7555C22.4453 23.6945 21.8969 21.9527 21.2266 19.8809C20.1449 16.5598 19.9875 16.1078 19.8504 15.9859L19.7031 15.8437H18.3676C17.0828 15.8437 17.027 15.8488 16.9152 15.9504C16.702 16.1535 16.6512 16.448 16.7883 16.7121C16.9203 16.9711 17.1031 17.0117 18.1238 17.0117H19.0379L19.6777 18.977C20.0332 20.0637 20.4801 21.4297 20.673 22.0187C20.866 22.6078 21.0234 23.1055 21.0234 23.1258C21.0234 23.141 17.4129 23.1562 12.9949 23.1562H4.97148L5.00703 23.0395C5.06797 22.8414 5.88047 20.343 6.42891 18.6469L6.96211 17.0117H8.91211H10.8621L11.573 17.8344L12.284 18.6621L11.7 18.6875C11.116 18.7129 11.1109 18.7129 10.9637 18.8805C10.8621 18.9973 10.8164 19.0988 10.8164 19.2258C10.8164 19.4391 10.9332 19.6777 11.0652 19.7539C11.2023 19.825 14.7977 19.825 14.9348 19.7539C15.0668 19.6777 15.1836 19.4391 15.1836 19.2258C15.1836 19.0988 15.1379 18.9973 15.0363 18.8805C14.8891 18.7129 14.884 18.7129 14.3 18.6875L13.716 18.6621L15.9758 16.0469C17.2199 14.6098 18.3727 13.2387 18.5402 13.0051C19.5965 11.502 20.1703 9.45039 20.0078 7.76953C19.9773 7.43945 19.9113 6.99258 19.8555 6.77422C19.1902 3.99648 16.9305 1.89922 14.1172 1.44726C13.5383 1.35586 12.416 1.35586 11.8828 1.44726ZM13.9953 2.61523C15.4629 2.87422 16.8187 3.71211 17.748 4.95117C18.0934 5.4082 18.5148 6.29687 18.6672 6.88086C18.8297 7.50039 18.8855 8.55156 18.7941 9.19648C18.6266 10.3086 18.0934 11.6238 17.4434 12.482C17.1031 12.9391 13.0508 17.6211 13 17.6211C12.9492 17.6211 8.95273 13 8.5668 12.4973C7.72891 11.3902 7.16016 9.71445 7.16016 8.3332C7.16016 6.72851 7.76445 5.33203 8.94766 4.18437C9.7957 3.36172 10.8316 2.82851 11.9844 2.61523C12.5023 2.52383 13.452 2.52383 13.9953 2.61523Z" fill="#595962"/>
<path d="M12.2484 5.61134C11.4359 5.83986 10.791 6.37306 10.4305 7.1297C10.202 7.59689 10.141 7.95236 10.1715 8.53126C10.2324 9.76525 11.0602 10.791 12.2383 11.0957C12.6547 11.2074 13.3809 11.2024 13.782 11.0957C14.7621 10.8367 15.5797 9.97345 15.798 8.97814C15.8894 8.5465 15.8336 7.76954 15.6812 7.35822C15.4121 6.62697 14.7723 5.98712 14.041 5.70783C13.5941 5.53517 12.6852 5.48947 12.2484 5.61134ZM13.5586 6.78947C14.1781 7.00275 14.6148 7.58165 14.6656 8.23673C14.7266 9.06954 14.2035 9.76525 13.3605 9.98361C12.6395 10.1664 11.898 9.82111 11.5223 9.13048C11.3598 8.83087 11.3496 8.78009 11.3496 8.35353C11.3496 7.95743 11.3699 7.86095 11.4867 7.64259C11.9031 6.8504 12.741 6.50509 13.5586 6.78947Z" fill="#595962"/>
</svg>
