<svg width="26" height="26" viewBox="0 0 26 26" fill="none" xmlns="http://www.w3.org/2000/svg">
<g clip-path="url(#clip0_14_96)">
<path d="M4.26552 1.01561V2.03124H3.42255C2.46278 2.03124 2.17333 2.0871 1.60458 2.37147C1.11708 2.61522 0.583874 3.14843 0.340124 3.63593C-0.0255013 4.3621 -0.000110669 3.57499 -0.000110669 14.0156C-0.000110669 24.4562 -0.0255013 23.6691 0.340124 24.3953C0.583874 24.8828 1.11708 25.416 1.60458 25.6598C2.33583 26.0254 1.43192 26 12.9999 26C24.5679 26 23.664 26.0254 24.3952 25.6598C24.8827 25.416 25.4159 24.8828 25.6597 24.3953C26.0253 23.6691 25.9999 24.4562 25.9999 14.0156C25.9999 3.57499 26.0253 4.3621 25.6597 3.63593C25.4159 3.14843 24.8827 2.61522 24.3952 2.37147C23.8265 2.0871 23.537 2.03124 22.5772 2.03124H21.7343V1.01561V-1.21117e-05H20.7186H19.703V1.01561V2.03124H12.9999H6.29677V1.01561V-1.21117e-05H5.28114H4.26552V1.01561ZM4.26552 5.07811V6.09374H5.28114H6.29677V5.07811V4.06249H12.9999H19.703V5.07811V6.09374H20.7186H21.7343V5.07304V4.04725L22.4604 4.07264C23.1409 4.09296 23.2069 4.10311 23.4253 4.23007C23.5776 4.32147 23.7097 4.4535 23.8011 4.61093L23.9433 4.8496L23.9585 6.18007L23.9788 7.51561H12.9999H2.02098L2.0413 6.18007L2.05653 4.8496L2.19364 4.61093C2.34598 4.35194 2.61005 4.16405 2.88934 4.10819C2.99091 4.08788 3.3413 4.07264 3.67137 4.06757L4.26552 4.06249V5.07811ZM23.9585 16.3617L23.9433 23.1816L23.8011 23.4203C23.7097 23.5777 23.5776 23.7098 23.4202 23.8012L23.1815 23.9433H12.9999H2.81825L2.57958 23.8012C2.42216 23.7098 2.29012 23.5777 2.19872 23.4203L2.05653 23.1816L2.0413 16.3617L2.03114 9.54686H12.9999H23.9686L23.9585 16.3617Z" fill="#595962"/>
<path d="M3.85938 12.6953V13.7109H4.875H5.89062V12.6953V11.6797H4.875H3.85938V12.6953Z" fill="#595962"/>
<path d="M7.92188 12.6953V13.7109H8.9375H9.95313V12.6953V11.6797H8.9375H7.92188V12.6953Z" fill="#595962"/>
<path d="M11.9844 12.6953V13.7109H13H14.0156V12.6953V11.6797H13H11.9844V12.6953Z" fill="#595962"/>
<path d="M16.0469 12.6953V13.7109H17.0625H18.0781V12.6953V11.6797H17.0625H16.0469V12.6953Z" fill="#595962"/>
<path d="M20.1094 12.6953V13.7109H21.125H22.1406V12.6953V11.6797H21.125H20.1094V12.6953Z" fill="#595962"/>
<path d="M3.85938 16.7578V17.7734H4.875H5.89062V16.7578V15.7422H4.875H3.85938V16.7578Z" fill="#595962"/>
<path d="M7.92188 16.7578V17.7734H8.9375H9.95313V16.7578V15.7422H8.9375H7.92188V16.7578Z" fill="#595962"/>
<path d="M11.9844 16.7578V17.7734H13H14.0156V16.7578V15.7422H13H11.9844V16.7578Z" fill="#595962"/>
<path d="M16.0469 16.7578V17.7734H17.0625H18.0781V16.7578V15.7422H17.0625H16.0469V16.7578Z" fill="#595962"/>
<path d="M20.1094 16.7578V17.7734H21.125H22.1406V16.7578V15.7422H21.125H20.1094V16.7578Z" fill="#595962"/>
<path d="M3.85938 20.8203V21.8359H4.875H5.89062V20.8203V19.8047H4.875H3.85938V20.8203Z" fill="#595962"/>
<path d="M7.92188 20.8203V21.8359H8.9375H9.95313V20.8203V19.8047H8.9375H7.92188V20.8203Z" fill="#595962"/>
<path d="M11.9844 20.8203V21.8359H13H14.0156V20.8203V19.8047H13H11.9844V20.8203Z" fill="#595962"/>
<path d="M16.0469 20.8203V21.8359H17.0625H18.0781V20.8203V19.8047H17.0625H16.0469V20.8203Z" fill="#595962"/>
</g>
<defs>
<clipPath id="clip0_14_96">
<rect width="26" height="26" fill="white"/>
</clipPath>
</defs>
</svg>
