<svg width="26" height="26" viewBox="0 0 26 26" fill="none" xmlns="http://www.w3.org/2000/svg">
<path d="M7.44453 0.0964853C7.36836 0.147267 7.25664 0.258985 7.20586 0.335157C7.11445 0.477345 7.10938 0.827735 7.10938 13.2387V26H8.15039H9.18633L9.20156 23.4457C9.2168 20.5918 9.20664 20.6934 9.58242 20.4547L9.77539 20.3379H13C16.1332 20.3379 16.2297 20.343 16.3922 20.4395C16.4836 20.4953 16.6105 20.6223 16.6715 20.7188C16.7832 20.8965 16.7832 20.927 16.7984 23.4457L16.8137 26H17.8496H18.8906V13.2387C18.8906 0.827735 18.8855 0.477345 18.7941 0.335157C18.7434 0.258985 18.6316 0.147267 18.5555 0.0964853C18.4133 0.00507908 18.2152 9.53674e-07 13 9.53674e-07C7.78477 9.53674e-07 7.58672 0.00507908 7.44453 0.0964853ZM10.3187 2.16836C10.4 2.21914 10.5168 2.34102 10.5777 2.4375C10.6844 2.60508 10.6895 2.67617 10.6895 3.55469C10.6895 4.4332 10.6844 4.5043 10.5777 4.67188C10.4355 4.90547 10.2172 5.02734 9.95312 5.02734C9.68906 5.02734 9.4707 4.90547 9.32852 4.67188C9.22695 4.5043 9.2168 4.4332 9.2168 3.58008C9.2168 2.54414 9.25234 2.40195 9.5418 2.20391C9.76016 2.05664 10.0953 2.04141 10.3187 2.16836ZM13.3656 2.16836C13.4469 2.21914 13.5637 2.34102 13.6246 2.4375C13.7312 2.60508 13.7363 2.67617 13.7363 3.55469C13.7363 4.4332 13.7312 4.5043 13.6246 4.67188C13.4824 4.90547 13.2641 5.02734 13 5.02734C12.7359 5.02734 12.5176 4.90547 12.3754 4.67188C12.2738 4.5043 12.2637 4.4332 12.2637 3.58008C12.2637 2.54414 12.2992 2.40195 12.5887 2.20391C12.807 2.05664 13.1422 2.04141 13.3656 2.16836ZM16.4125 2.16836C16.4937 2.21914 16.6105 2.34102 16.6715 2.4375C16.7781 2.60508 16.7832 2.67617 16.7832 3.55469C16.7832 4.4332 16.7781 4.5043 16.6715 4.67188C16.5293 4.90547 16.3109 5.02734 16.0469 5.02734C15.7828 5.02734 15.5645 4.90547 15.4223 4.67188C15.3207 4.5043 15.3105 4.4332 15.3105 3.58008C15.3105 2.54414 15.3461 2.40195 15.6355 2.20391C15.8539 2.05664 16.1891 2.04141 16.4125 2.16836ZM10.3187 6.73867C10.4 6.78945 10.5168 6.91133 10.5777 7.00781C10.6844 7.17539 10.6895 7.24649 10.6895 8.125C10.6895 9.00352 10.6844 9.07461 10.5777 9.24219C10.4355 9.47578 10.2172 9.59766 9.95312 9.59766C9.68906 9.59766 9.4707 9.47578 9.32852 9.24219C9.22695 9.07461 9.2168 9.00352 9.2168 8.15039C9.2168 7.11445 9.25234 6.97227 9.5418 6.77422C9.76016 6.62695 10.0953 6.61172 10.3187 6.73867ZM13.3656 6.73867C13.4469 6.78945 13.5637 6.91133 13.6246 7.00781C13.7312 7.17539 13.7363 7.24649 13.7363 8.125C13.7363 9.00352 13.7312 9.07461 13.6246 9.24219C13.4824 9.47578 13.2641 9.59766 13 9.59766C12.7359 9.59766 12.5176 9.47578 12.3754 9.24219C12.2738 9.07461 12.2637 9.00352 12.2637 8.15039C12.2637 7.11445 12.2992 6.97227 12.5887 6.77422C12.807 6.62695 13.1422 6.61172 13.3656 6.73867ZM16.4125 6.73867C16.4937 6.78945 16.6105 6.91133 16.6715 7.00781C16.7781 7.17539 16.7832 7.24649 16.7832 8.125C16.7832 9.00352 16.7781 9.07461 16.6715 9.24219C16.5293 9.47578 16.3109 9.59766 16.0469 9.59766C15.7828 9.59766 15.5645 9.47578 15.4223 9.24219C15.3207 9.07461 15.3105 9.00352 15.3105 8.15039C15.3105 7.11445 15.3461 6.97227 15.6355 6.77422C15.8539 6.62695 16.1891 6.61172 16.4125 6.73867ZM10.3187 11.309C10.4 11.3598 10.5168 11.4816 10.5777 11.5781C10.6844 11.7457 10.6895 11.8168 10.6895 12.6953C10.6895 13.5738 10.6844 13.6449 10.5777 13.8125C10.4355 14.0461 10.2172 14.168 9.95312 14.168C9.68906 14.168 9.4707 14.0461 9.32852 13.8125C9.22695 13.6449 9.2168 13.5738 9.2168 12.7207C9.2168 11.6848 9.25234 11.5426 9.5418 11.3445C9.76016 11.1973 10.0953 11.182 10.3187 11.309ZM13.3656 11.309C13.4469 11.3598 13.5637 11.4816 13.6246 11.5781C13.7312 11.7457 13.7363 11.8168 13.7363 12.6953C13.7363 13.5738 13.7312 13.6449 13.6246 13.8125C13.4824 14.0461 13.2641 14.168 13 14.168C12.7359 14.168 12.5176 14.0461 12.3754 13.8125C12.2738 13.6449 12.2637 13.5738 12.2637 12.7207C12.2637 11.6848 12.2992 11.5426 12.5887 11.3445C12.807 11.1973 13.1422 11.182 13.3656 11.309ZM16.4125 11.309C16.4937 11.3598 16.6105 11.4816 16.6715 11.5781C16.7781 11.7457 16.7832 11.8168 16.7832 12.6953C16.7832 13.5738 16.7781 13.6449 16.6715 13.8125C16.5293 14.0461 16.3109 14.168 16.0469 14.168C15.7828 14.168 15.5645 14.0461 15.4223 13.8125C15.3207 13.6449 15.3105 13.5738 15.3105 12.7207C15.3105 11.6848 15.3461 11.5426 15.6355 11.3445C15.8539 11.1973 16.1891 11.182 16.4125 11.309ZM10.3187 15.8793C10.4 15.9301 10.5168 16.052 10.5777 16.1484C10.6844 16.316 10.6895 16.3871 10.6895 17.2656C10.6895 18.1441 10.6844 18.2152 10.5777 18.3828C10.4355 18.6164 10.2172 18.7383 9.95312 18.7383C9.68906 18.7383 9.4707 18.6164 9.32852 18.3828C9.22695 18.2152 9.2168 18.1441 9.2168 17.291C9.2168 16.2551 9.25234 16.1129 9.5418 15.9148C9.76016 15.7676 10.0953 15.7523 10.3187 15.8793ZM13.3656 15.8793C13.4469 15.9301 13.5637 16.052 13.6246 16.1484C13.7312 16.316 13.7363 16.3871 13.7363 17.2656C13.7363 18.1441 13.7312 18.2152 13.6246 18.3828C13.4824 18.6164 13.2641 18.7383 13 18.7383C12.7359 18.7383 12.5176 18.6164 12.3754 18.3828C12.2738 18.2152 12.2637 18.1441 12.2637 17.291C12.2637 16.2551 12.2992 16.1129 12.5887 15.9148C12.807 15.7676 13.1422 15.7523 13.3656 15.8793ZM16.4125 15.8793C16.4937 15.9301 16.6105 16.052 16.6715 16.1484C16.7781 16.316 16.7832 16.3871 16.7832 17.2656C16.7832 18.1441 16.7781 18.2152 16.6715 18.3828C16.5293 18.6164 16.3109 18.7383 16.0469 18.7383C15.7828 18.7383 15.5645 18.6164 15.4223 18.3828C15.3207 18.2152 15.3105 18.1441 15.3105 17.291C15.3105 16.2551 15.3461 16.1129 15.6355 15.9148C15.8539 15.7676 16.1891 15.7523 16.4125 15.8793Z" fill="#595962"/>
<path d="M0.335156 10.2527C0.258984 10.3035 0.147266 10.4152 0.0964844 10.4914C0.00507812 10.6336 0 10.8773 0 18.0781C0 25.2789 0.00507812 25.5227 0.0964844 25.6648C0.147266 25.741 0.258984 25.8527 0.335156 25.9035C0.472266 25.9949 0.619531 26 3.03672 26H5.58594V18.0781V10.1563H3.03672C0.619531 10.1563 0.472266 10.1613 0.335156 10.2527ZM3.15859 13.3402C3.23984 13.391 3.35664 13.5129 3.41758 13.6094C3.52422 13.777 3.5293 13.848 3.5293 14.7266C3.5293 15.6051 3.52422 15.6762 3.41758 15.8438C3.27539 16.0773 3.05703 16.1992 2.79297 16.1992C2.52891 16.1992 2.31055 16.0773 2.16836 15.8438C2.0668 15.6762 2.05664 15.6051 2.05664 14.752C2.05664 13.716 2.09219 13.5738 2.38164 13.3758C2.6 13.2285 2.93516 13.2133 3.15859 13.3402ZM3.15859 17.9105C3.23984 17.9613 3.35664 18.0832 3.41758 18.1797C3.52422 18.3473 3.5293 18.4184 3.5293 19.2969C3.5293 20.1754 3.52422 20.2465 3.41758 20.4141C3.27539 20.6477 3.05703 20.7695 2.79297 20.7695C2.52891 20.7695 2.31055 20.6477 2.16836 20.4141C2.0668 20.2465 2.05664 20.1754 2.05664 19.3223C2.05664 18.2863 2.09219 18.1441 2.38164 17.9461C2.6 17.7988 2.93516 17.7836 3.15859 17.9105Z" fill="#595962"/>
<path d="M20.4141 18.0781V26H22.9684C25.3805 26 25.5277 25.9949 25.6648 25.9035C25.741 25.8527 25.8527 25.741 25.9035 25.6648C25.9949 25.5227 26 25.2789 26 18.0781C26 10.8773 25.9949 10.6336 25.9035 10.4914C25.8527 10.4152 25.741 10.3035 25.6648 10.2527C25.5277 10.1613 25.3805 10.1563 22.9684 10.1563H20.4141V18.0781ZM23.5727 13.3402C23.6539 13.391 23.7707 13.5129 23.8316 13.6094C23.9383 13.777 23.9434 13.848 23.9434 14.7266C23.9434 15.6051 23.9383 15.6762 23.8316 15.8438C23.6895 16.0773 23.4711 16.1992 23.207 16.1992C22.943 16.1992 22.7246 16.0773 22.5824 15.8438C22.4809 15.6762 22.4707 15.6051 22.4707 14.752C22.4707 13.716 22.5062 13.5738 22.7957 13.3758C23.0141 13.2285 23.3492 13.2133 23.5727 13.3402ZM23.5727 17.9105C23.6539 17.9613 23.7707 18.0832 23.8316 18.1797C23.9383 18.3473 23.9434 18.4184 23.9434 19.2969C23.9434 20.1754 23.9383 20.2465 23.8316 20.4141C23.6895 20.6477 23.4711 20.7695 23.207 20.7695C22.943 20.7695 22.7246 20.6477 22.5824 20.4141C22.4809 20.2465 22.4707 20.1754 22.4707 19.3223C22.4707 18.2863 22.5062 18.1441 22.7957 17.9461C23.0141 17.7988 23.3492 17.7836 23.5727 17.9105Z" fill="#595962"/>
<path d="M10.7148 23.918V26H11.4766H12.2383V23.918V21.8359H11.4766H10.7148V23.918Z" fill="#595962"/>
<path d="M13.7617 23.918V26H14.5234H15.2852V23.918V21.8359H14.5234H13.7617V23.918Z" fill="#595962"/>
</svg>
