<svg width="26" height="26" viewBox="0 0 26 26" fill="none" xmlns="http://www.w3.org/2000/svg">
<path d="M8.63793 0.0761704C7.50043 0.396092 6.58637 1.45742 6.46449 2.60508L6.43402 2.89453L6.09379 3.12305C4.07777 4.46367 2.4477 6.42383 1.50824 8.63789C1.0766 9.64844 0.766836 10.8012 0.604336 11.9844C0.518008 12.5988 0.518008 14.4473 0.599258 15.082C0.858242 17.0371 1.52348 18.8246 2.5848 20.4191C3.04691 21.1148 3.88988 22.1508 4.03715 22.2117C4.31645 22.3184 4.62113 22.1355 4.62113 21.8613C4.62113 21.7293 4.56527 21.6227 4.36723 21.3941C3.96605 20.927 3.28051 20.0129 3.04691 19.627C0.690664 15.7879 0.771914 10.8926 3.25004 7.13984L3.61566 6.58633L3.73754 6.88086C3.90512 7.30234 4.17934 7.6832 4.48402 7.91172C4.91059 8.23164 6.70316 9.29805 6.99262 9.39961C7.13988 9.45547 7.46996 9.53164 7.72895 9.57226C7.98793 9.61797 8.27738 9.67891 8.36879 9.70937C8.72934 9.82109 9.04418 10.2477 8.96293 10.5117C8.94262 10.5777 8.68363 10.7352 8.22152 10.9738C7.39379 11.4004 7.29223 11.4715 7.16527 11.7203C7.00277 12.0352 6.42387 14.3102 6.42387 14.625C6.42895 15.4527 7.30238 15.9402 8.04887 15.5238C8.19105 15.4477 8.32816 15.2902 8.5059 15.0211C8.76996 14.6098 8.87152 14.5336 9.02895 14.6199C9.07973 14.6453 9.40473 15.1582 9.75004 15.7523C10.0954 16.3465 10.4559 16.9051 10.5473 16.9965C10.6793 17.1234 10.918 17.225 11.7305 17.4941C12.8172 17.8547 13.0051 17.9613 13.1016 18.2609C13.1829 18.5047 13.1371 18.7078 12.9239 19.0277C12.675 19.3984 12.5735 19.7488 12.609 20.1043C12.6446 20.541 12.7918 20.8102 13.2539 21.3078C13.7313 21.8207 13.8125 21.973 13.8125 22.3691C13.8125 22.7551 13.7211 22.948 13.4114 23.207C13.0305 23.532 12.8731 23.8773 12.8782 24.4004C12.8782 24.6645 12.9086 24.8777 12.9645 25.0047C13.0153 25.1164 13.0457 25.2078 13.0407 25.2129C13.0305 25.218 12.7055 25.2027 12.3145 25.1824C10.0039 25.0555 7.6477 24.1668 5.81957 22.7297C5.5809 22.5469 5.47426 22.4961 5.32699 22.4961C5.10863 22.4961 4.92582 22.6738 4.92582 22.8922C4.92582 23.3543 7.3227 24.8066 8.98832 25.3602C10.3848 25.8223 11.5223 26 13.0407 26C14.686 26 16.0114 25.7512 17.545 25.1621C21.77 23.5371 24.6746 19.8707 25.3754 15.2852C25.4821 14.559 25.4973 12.7055 25.3957 11.9844C24.9184 8.52617 23.2071 5.57578 20.5004 3.54961C19.693 2.94531 19.3883 2.77773 19.1954 2.81836C19.0075 2.85898 18.8907 3.0164 18.8907 3.22461C18.8907 3.4125 18.9668 3.48867 19.5051 3.84922C20.211 4.32148 21.3739 5.32695 21.6329 5.6875L21.7293 5.82461L21.5567 6.14961C21.3079 6.6168 21.1504 6.74883 20.734 6.83516C20.0383 6.98242 19.7286 7.23633 19.3528 7.97266C19.0836 8.50078 18.9262 8.71406 18.7485 8.80547C18.6621 8.85117 18.3676 8.88164 17.9258 8.89687C17.3723 8.91719 17.1844 8.94258 16.9457 9.03398C16.2653 9.29805 15.6711 9.87695 15.4375 10.4914C15.3766 10.6539 15.2852 11.0043 15.2293 11.2734C15.0668 12.0809 15.011 12.1926 14.3559 13.066C13.6196 14.0512 13.5332 14.2238 13.5739 14.6402C13.6145 15.0719 13.777 15.275 14.4727 15.7777C15.1125 16.2348 15.3563 16.3312 15.7371 16.2805L15.986 16.25L16.0215 16.5395C16.1637 17.7531 16.8442 19.0988 17.8801 20.2312C18.2407 20.6273 18.5403 20.7695 19.0227 20.7695C19.3071 20.7695 19.434 20.7441 19.6422 20.6375C20.1246 20.3988 20.9219 19.373 21.445 18.3219L21.77 17.682L22.5672 18.2914L23.3645 18.9008L23.1817 19.2359C22.4707 20.5359 21.2825 21.8969 20.0586 22.8211C18.3118 24.1363 16.4024 24.893 14.1629 25.157L13.9243 25.1824L13.8227 24.9184C13.5789 24.3039 13.5993 24.1922 14.0411 23.7656C14.5082 23.3086 14.5996 23.075 14.5996 22.3691C14.5996 21.8715 14.5844 21.7801 14.4676 21.5312C14.3914 21.3687 14.1629 21.0641 13.9192 20.8051C13.6907 20.5613 13.4825 20.3023 13.4571 20.2312C13.3555 19.9723 13.3657 19.9316 13.7668 19.2207C13.9243 18.9414 13.9395 18.8805 13.9395 18.4844C13.9395 18.1137 13.9192 18.0172 13.8024 17.7937C13.5383 17.2961 13.325 17.1641 12.1469 16.768L11.1008 16.4227L10.4508 15.3055C9.7602 14.1223 9.59262 13.9191 9.21684 13.8125C8.69379 13.6652 8.24691 13.8836 7.89652 14.4473C7.65785 14.823 7.55121 14.9094 7.39379 14.8484C7.18559 14.7672 7.19574 14.6656 7.51566 13.4418C7.68324 12.7969 7.84066 12.223 7.86098 12.1723C7.88129 12.1266 8.25199 11.893 8.68363 11.6645C9.33363 11.3141 9.49105 11.2074 9.61801 11.0297C9.96332 10.5422 9.81098 9.7957 9.26254 9.29297C8.9477 9.00859 8.73949 8.92734 7.93207 8.78516C7.26684 8.66328 7.24652 8.65312 6.0227 7.91172C4.79379 7.16523 4.58559 6.95195 4.39262 6.27148C4.34691 6.10391 4.30121 5.92617 4.28598 5.88047C4.25551 5.77383 4.72777 5.26601 5.35238 4.72773C5.86527 4.29101 6.45434 3.84414 6.4848 3.87461C6.49496 3.88476 6.55082 4.0625 6.60668 4.2707C6.84535 5.14414 7.63754 6.47461 8.32816 7.17031C8.65824 7.50039 8.75473 7.57148 9.01371 7.64258C9.6434 7.83047 10.1664 7.63242 10.6996 7.00781C12.0758 5.39805 12.7004 3.58516 12.345 2.21914L12.2586 1.8789H13.0965C14.5946 1.88398 15.8387 2.11758 17.2758 2.67617C17.809 2.88437 17.8903 2.89961 18.0172 2.84883C18.261 2.74726 18.3473 2.45781 18.2051 2.24961C18.0121 1.97539 16.2754 1.40664 14.9551 1.18828C14.5946 1.12734 14.0614 1.09687 13.1118 1.08672L11.7762 1.07148L11.5274 0.827733C11.2278 0.533202 10.8418 0.29453 10.4305 0.142186C10.0395 -1.43051e-06 9.05434 -0.0355483 8.63793 0.0761704ZM10.3696 1.01055C10.8063 1.2289 11.2227 1.65547 11.4411 2.11758C11.5985 2.44765 11.6036 2.48828 11.5985 3.07226C11.5985 3.6207 11.5832 3.72734 11.436 4.14883C11.2329 4.74297 11.0551 5.09336 10.6692 5.66719C9.9684 6.71328 9.61293 7.00781 9.24223 6.85547C8.95785 6.73867 8.10473 5.6418 7.74418 4.92578C7.54105 4.52461 7.3227 3.82891 7.26176 3.4125C7.11449 2.32578 7.72387 1.28476 8.73949 0.914061C8.96293 0.827733 9.1102 0.812499 9.52152 0.827733C9.97855 0.837889 10.0649 0.858202 10.3696 1.01055ZM22.7856 7.1957C23.3594 8.06914 23.8977 9.23203 24.1922 10.2477C24.5375 11.4359 24.6493 12.2027 24.6493 13.5078C24.6543 14.7773 24.5274 15.7219 24.2176 16.7781C24.1211 17.1133 23.7707 18.0832 23.7403 18.1187C23.7301 18.1289 23.334 17.8344 22.8516 17.4687L21.9832 16.7984L22.0137 16.3312C22.1356 14.6148 20.8965 13.1777 19.1954 13.066C18.4539 13.0203 17.7836 13.2234 17.1895 13.6754C16.7121 14.0359 16.4379 14.4371 16.1079 15.2445C16.0621 15.3512 16.0012 15.3867 15.793 15.4324C15.4883 15.4984 15.4832 15.4934 14.9297 15.0922C14.4981 14.7773 14.3711 14.6504 14.3711 14.5285C14.3711 14.4777 14.6352 14.0867 14.9602 13.6551C15.7473 12.6039 15.8082 12.482 16.0215 11.4969C16.2094 10.593 16.4989 10.1664 17.1032 9.8668C17.3621 9.73984 17.4586 9.72461 18.1239 9.69922C19.2461 9.65351 19.4442 9.52148 20.018 8.48047C20.3735 7.83555 20.5258 7.69336 20.9118 7.6375C21.4399 7.56641 21.9071 7.23125 22.1762 6.74375L22.3082 6.50508L22.3946 6.6168C22.4454 6.67773 22.618 6.93672 22.7856 7.1957ZM19.5254 13.9395C20.3836 14.1629 21.0286 14.8637 21.1809 15.7371C21.3688 16.7832 20.6325 18.525 19.5153 19.6828C19.2766 19.9367 19.236 19.957 19.0227 19.957C18.7282 19.957 18.5657 19.8199 18.0325 19.109C17.5704 18.4945 17.1793 17.7734 16.9813 17.1641C16.8645 16.8035 16.8442 16.641 16.8391 16.1738C16.8391 15.6711 16.8543 15.5797 16.9813 15.2648C17.159 14.8484 17.5907 14.3559 17.9664 14.1527C18.4743 13.8734 18.9973 13.8023 19.5254 13.9395Z" fill="#595962"/>
<path d="M8.96797 1.70625C8.46523 1.86367 8.07422 2.43242 8.07422 2.99609C8.07422 4.15898 9.48594 4.78867 10.334 4.00664C10.6488 3.71718 10.7809 3.41757 10.7809 3.00117C10.7809 2.80312 10.7453 2.58476 10.6945 2.46289C10.5879 2.21406 10.2984 1.90429 10.0395 1.77226C9.77539 1.63515 9.28281 1.60468 8.96797 1.70625ZM9.76523 2.5746C9.82109 2.62539 9.89726 2.74218 9.93789 2.83359C9.99883 2.98593 9.99883 3.02148 9.91758 3.18906C9.86679 3.29062 9.75 3.41757 9.65859 3.47343C9.51133 3.55468 9.46055 3.55976 9.28789 3.50898C8.94766 3.40742 8.80039 3.05703 8.96289 2.74218C9.11523 2.44765 9.52148 2.36132 9.76523 2.5746Z" fill="#595962"/>
<path d="M18.398 14.8535C17.9105 15.0973 17.677 15.4984 17.6719 16.0773C17.6719 16.8543 18.2102 17.4078 18.9871 17.418C19.3781 17.418 19.6269 17.3266 19.9062 17.0777C20.2414 16.7781 20.3785 16.4379 20.3531 16.0012C20.3277 15.6102 20.2262 15.3664 19.9723 15.1176C19.7082 14.8535 19.4797 14.757 19.043 14.7367C18.7129 14.7215 18.6266 14.7367 18.398 14.8535ZM19.3781 15.7117C19.5101 15.8437 19.5508 15.925 19.5508 16.0723C19.5508 16.3211 19.2816 16.6055 19.043 16.6055C18.7129 16.6055 18.4894 16.3871 18.4844 16.0621C18.4844 15.8945 18.5148 15.8184 18.6418 15.6965C18.8652 15.468 19.1394 15.473 19.3781 15.7117Z" fill="#595962"/>
</svg>
