<svg width="26" height="26" viewBox="0 0 26 26" fill="none" xmlns="http://www.w3.org/2000/svg">
<g clip-path="url(#clip0_14_87)">
<path d="M1.30492 4.16406C0.94437 4.225 0.639682 4.39766 0.385776 4.67695C-0.0306309 5.13906 -0.00016209 4.46875 -0.00016209 13C-0.00016209 21.6633 -0.0407871 20.8863 0.451791 21.384C0.654916 21.5871 0.817416 21.6938 1.01546 21.7648C1.28968 21.8563 1.6096 21.8613 12.9998 21.8613C24.3901 21.8613 24.71 21.8563 24.9842 21.7648C25.1823 21.6938 25.3448 21.5871 25.5479 21.384C26.0405 20.8863 25.9998 21.6633 25.9998 13C25.9998 6.02266 25.9948 5.38281 25.9135 5.14922C25.8018 4.81914 25.3549 4.37227 25.0096 4.23516C24.7608 4.13867 24.4764 4.13867 13.1522 4.13359C6.76898 4.12852 1.44203 4.14375 1.30492 4.16406ZM24.644 5.28633C24.9131 5.4082 24.9334 5.51484 24.9334 6.95195V8.27734H12.9998H1.06624V6.9418C1.07132 5.51992 1.08148 5.43359 1.32523 5.30156C1.42679 5.2457 3.50375 5.23555 12.9846 5.23047C21.1756 5.23047 24.5577 5.2457 24.644 5.28633ZM24.9334 15.925C24.9334 19.9824 24.9284 20.3836 24.8471 20.5156C24.8014 20.5969 24.71 20.6832 24.644 20.7137C24.4612 20.7949 1.52835 20.7898 1.34554 20.7086C1.05609 20.5766 1.06624 20.7492 1.06624 15.9199V11.4766H12.9998H24.9334V15.925Z" fill="#595962"/>
<path d="M4.43827 14.6047C4.07264 14.7824 4.04218 15.3156 4.38241 15.5391C4.47889 15.6051 5.19491 15.6153 9.24218 15.6305C12.5176 15.6406 14.0461 15.6305 14.1781 15.5899C14.5793 15.4731 14.7063 15.0262 14.427 14.7164L14.2797 14.5489L9.43515 14.5387C5.15429 14.5285 4.57538 14.5336 4.43827 14.6047Z" fill="#595962"/>
<path d="M4.43827 16.6867C4.07264 16.8645 4.04218 17.3977 4.38241 17.6211C4.47382 17.6871 4.93085 17.7024 7.16015 17.7125C8.96796 17.7227 9.8871 17.7125 10.0141 17.6719C10.4152 17.5551 10.5422 17.1082 10.2629 16.7985L10.1156 16.6309L7.35312 16.6207C4.94608 16.6055 4.57538 16.6156 4.43827 16.6867Z" fill="#595962"/>
</g>
<defs>
<clipPath id="clip0_14_87">
<rect width="26" height="26" fill="white"/>
</clipPath>
</defs>
</svg>
