<svg width="26" height="26" viewBox="0 0 26 26" fill="none" xmlns="http://www.w3.org/2000/svg">
<path d="M1.73672 3.55979C1.08672 3.66643 0.482422 4.13362 0.187891 4.75823L0.0253906 5.10354V13V20.8965L0.187891 21.2418C0.492578 21.8766 1.0918 22.3285 1.7875 22.4453C2.2293 22.5164 23.7707 22.5164 24.2125 22.4453C24.9133 22.3285 25.5074 21.8817 25.8121 21.2418L25.9746 20.8965V13V5.10354L25.8121 4.75823C25.5074 4.11331 24.9184 3.67151 24.2176 3.55979C23.8113 3.49378 2.13281 3.49378 1.73672 3.55979ZM24.2684 4.86487C24.3648 4.91057 24.5121 5.03753 24.5984 5.14417L24.7559 5.34221L24.7711 6.20042L24.7863 7.05862H13H1.21367L1.22891 6.20042L1.24414 5.34221L1.40156 5.14417C1.48789 5.03753 1.63516 4.91057 1.73164 4.86487C1.89414 4.77854 2.53906 4.77346 13 4.77346C23.4609 4.77346 24.1059 4.77854 24.2684 4.86487ZM24.7711 14.4676L24.7559 20.6578L24.5984 20.8559C24.5121 20.9625 24.3648 21.0895 24.2684 21.1352C24.1059 21.2215 23.4609 21.2266 13 21.2266C2.53906 21.2266 1.89414 21.2215 1.73164 21.1352C1.63516 21.0895 1.48789 20.9625 1.40156 20.8559L1.24414 20.6578L1.22891 14.4676L1.21875 8.27737H13H24.7812L24.7711 14.4676Z" fill="#595962"/>
<path d="M7.28711 11.8168C6.31211 11.9437 5.43359 12.5887 5.00195 13.4824C4.79375 13.9191 4.72266 14.2543 4.72266 14.7926C4.72266 15.6254 4.9918 16.2703 5.58086 16.8645C5.87031 17.1539 6.0582 17.2961 6.34766 17.4281C6.92148 17.7023 7.17539 17.743 8.18594 17.748C9.21172 17.748 9.30312 17.7176 9.44023 17.3316C9.50625 17.1539 9.50625 17.098 9.44023 16.9355C9.30312 16.5648 9.20156 16.5344 8.16055 16.5039C7.29727 16.4785 7.21602 16.4684 6.95703 16.3465C6.60156 16.1789 6.28672 15.8641 6.10898 15.4984C5.98711 15.2496 5.9668 15.148 5.9668 14.7773C5.9668 14.4168 5.98711 14.3 6.10391 14.0562C6.36289 13.5027 6.86562 13.1371 7.49023 13.0457C7.65781 13.0203 8.09453 13 8.46016 13C9.12031 13 9.13047 13 9.27773 12.8578C9.5875 12.5734 9.51641 12.0555 9.14062 11.8727C8.99336 11.7965 8.83594 11.7812 8.20117 11.7914C7.78477 11.7914 7.37344 11.8066 7.28711 11.8168Z" fill="#595962"/>
<path d="M10.9129 11.898C10.7148 12.03 10.6133 12.2027 10.6133 12.4007C10.6133 12.6039 12.4262 17.4179 12.5582 17.5601C12.6953 17.7074 12.9543 17.7785 13.1676 17.7175C13.2641 17.6922 13.3859 17.6211 13.4418 17.5601C13.5027 17.4941 13.9598 16.3464 14.4727 14.9804C15.2496 12.9086 15.3918 12.4871 15.3715 12.3246C15.3055 11.8371 14.7012 11.6187 14.3559 11.964C14.2695 12.0504 14.041 12.5988 13.6297 13.6855C13.3047 14.564 13.0203 15.2851 13 15.2851C12.9797 15.2851 12.7309 14.6504 12.4414 13.8734C11.7711 12.0707 11.7203 11.964 11.507 11.8625C11.2734 11.7507 11.116 11.7609 10.9129 11.898Z" fill="#595962"/>
<path d="M16.8747 11.8524C16.7883 11.893 16.6766 11.9793 16.636 12.0454C16.4481 12.3348 16.4532 12.35 17.418 14.9297C17.9258 16.2805 18.3626 17.4282 18.3879 17.479C18.52 17.7278 18.9973 17.8192 19.2614 17.6465C19.4239 17.545 19.429 17.5297 20.4344 14.8383C20.9727 13.4012 21.2774 12.5227 21.2774 12.4008C21.2774 11.9743 20.8965 11.695 20.4954 11.8321C20.3989 11.8625 20.2719 11.9438 20.2161 12.0098C20.1653 12.0809 19.8555 12.8528 19.5254 13.7364C19.1954 14.6149 18.9161 15.3258 18.9059 15.3157C18.8907 15.3055 18.6063 14.559 18.2661 13.6551C17.6008 11.9032 17.5754 11.8575 17.2149 11.8067C17.1184 11.7915 16.9661 11.8118 16.8747 11.8524Z" fill="#595962"/>
</svg>
