<svg width="26" height="26" viewBox="0 0 26 26" fill="none" xmlns="http://www.w3.org/2000/svg">
<g clip-path="url(#clip0_6_54)">
<path d="M1.75196 3.93046C1.3254 4.0371 1.00548 4.21991 0.68048 4.54491C0.350402 4.87499 0.147278 5.23553 0.0558715 5.67733C-0.0253784 6.06327 -0.0253784 19.9469 0.0558715 20.3226C0.243762 21.191 0.954699 21.9019 1.81798 22.0848C2.19884 22.166 23.8012 22.166 24.182 22.0848C25.0453 21.9019 25.7613 21.1808 25.9441 20.3226C26.0254 19.9367 26.0254 6.05311 25.9441 5.67733C25.7562 4.80389 25.0504 4.09803 24.182 3.91522C23.7707 3.82889 2.09728 3.84413 1.75196 3.93046ZM18.459 10.3137C15.7473 13.0203 13.4723 15.275 13.3961 15.3156C13.2184 15.407 12.7816 15.407 12.6039 15.3156C12.5277 15.275 10.2527 13.0203 7.54102 10.3137L2.61524 5.3828H13H23.3848L18.459 10.3137ZM4.80899 16.2855L1.52345 19.5762V13V6.42382L4.80899 9.71444L8.09961 13L4.80899 16.2855ZM24.4766 13.0101V19.5762L21.191 16.2906L17.9004 13L21.1758 9.7246C22.9785 7.92186 24.4562 6.44921 24.4613 6.44921C24.4715 6.44921 24.4766 9.40467 24.4766 13.0101ZM10.3543 15.3004C11.4461 16.382 11.5883 16.5039 11.9539 16.6867L12.3602 16.8848H12.9949C13.6297 16.8848 13.6398 16.8848 14.0359 16.6918C14.4066 16.514 14.5234 16.4125 15.6508 15.3004L16.8644 14.0969L20.1246 17.357L23.3848 20.6172H13H2.61524L5.86524 17.3672C7.65274 15.5797 9.12539 14.1172 9.13555 14.1172C9.15078 14.1172 9.69922 14.6504 10.3543 15.3004Z" fill="#595962"/>
</g>
<defs>
<clipPath id="clip0_6_54">
<rect width="26" height="26" fill="white"/>
</clipPath>
</defs>
</svg>
