<svg width="26" height="26" viewBox="0 0 26 26" fill="none" xmlns="http://www.w3.org/2000/svg">
<path d="M1.52852 3.96094C0.924219 4.1793 0.477344 4.58555 0.187891 5.17461L0.0253906 5.50977V13V20.4902L0.187891 20.8254C0.482422 21.4297 0.939453 21.8309 1.55391 22.0391C1.84844 22.1406 1.9957 22.1406 13.1016 22.1305L24.3496 22.1152L24.7051 21.9426C25.1723 21.7141 25.5734 21.3129 25.802 20.8457L25.9746 20.4902V13V5.50977L25.802 5.1543C25.5734 4.68711 25.1723 4.28594 24.7051 4.05743L24.3496 3.88477L13.0762 3.87461C2.05156 3.86446 1.79766 3.86446 1.52852 3.96094ZM18.3574 10.3543C12.9441 15.7625 13.2945 15.4527 12.8121 15.3613C12.6395 15.3309 12.0707 14.7824 7.64258 10.3543L2.66602 5.38282H13H23.334L18.3574 10.3543ZM4.78359 16.2602L1.52344 19.5254V13V6.47461L4.78359 9.73985L8.04883 13L4.78359 16.2602ZM24.4766 13.0102V19.5254L21.2164 16.2652L17.9512 13L21.2012 9.75C22.9887 7.9625 24.4562 6.5 24.4613 6.5C24.4715 6.5 24.4766 9.43008 24.4766 13.0102ZM11.8828 16.6918C12.6344 17.0473 13.3555 17.0473 14.1172 16.6969C14.4066 16.5598 14.5895 16.4023 15.6406 15.3309L16.8391 14.1223L20.084 17.3672L23.334 20.6172H13H2.66602L5.91602 17.3672L9.16602 14.1172L10.3594 15.3258C11.4004 16.382 11.5934 16.5547 11.8828 16.6918Z" fill="#595962"/>
</svg>
