<svg width="26" height="26" viewBox="0 0 26 26" fill="none" xmlns="http://www.w3.org/2000/svg">
<path d="M12.3399 0.030455C11.7305 0.137096 11.5528 0.177721 11.1973 0.289439C9.50628 0.817564 8.07425 2.18358 7.46487 3.8492C7.14495 4.72772 7.1094 5.06288 7.1094 7.22108V9.17108L6.71839 9.49608C5.32698 10.6691 4.15393 12.6801 3.75784 14.5793C2.85901 18.8957 5.00198 23.2172 8.96292 25.091C11.5985 26.3351 14.625 26.2945 17.2403 24.9844C19.0481 24.0754 20.475 22.6687 21.3993 20.8711C22.7907 18.1695 22.7957 15.0211 21.4246 12.2789C20.9321 11.2988 20.0637 10.1715 19.2766 9.49608L18.8957 9.166L18.8907 7.22108C18.8907 5.45389 18.8805 5.22538 18.784 4.75819C18.327 2.49335 16.6664 0.756627 14.4219 0.177721C14.0004 0.07108 13.7414 0.0406113 13.1778 0.0253769C12.7867 0.0152206 12.411 0.0152206 12.3399 0.030455ZM13.8836 2.48827C15.2496 2.83866 16.2703 3.966 16.4989 5.38788C16.5293 5.56561 16.5547 6.18006 16.5547 6.74881C16.5547 7.62733 16.5446 7.7746 16.4836 7.75428C16.0571 7.5867 15.3614 7.38866 14.8332 7.27694C14.2442 7.14999 14.0969 7.13983 13.0254 7.13475C11.9996 7.13475 11.7864 7.14999 11.2735 7.25155C10.8063 7.34803 9.90745 7.60194 9.5012 7.75936C9.39456 7.79999 9.45042 5.41835 9.56722 5.00194C9.91253 3.77303 10.8926 2.80311 12.1063 2.48827C12.6039 2.35624 13.3707 2.35624 13.8836 2.48827ZM14.3457 9.59256C15.7778 9.86678 16.9508 10.4965 18.002 11.5527C19.368 12.9187 20.0739 14.6098 20.0739 16.5293C20.0739 17.3773 19.9723 18.0324 19.7184 18.789C18.9364 21.1555 16.9508 22.9277 14.4473 23.4914C13.8938 23.6133 12.5227 23.6437 11.893 23.5422C8.90198 23.0699 6.54065 20.739 6.0176 17.748C5.90081 17.0879 5.90081 15.9859 6.01253 15.3359C6.56096 12.2484 9.05432 9.89217 12.1977 9.49608C12.7258 9.43006 13.7516 9.47577 14.3457 9.59256Z" fill="#595962"/>
<path d="M12.3906 13.0711C11.3496 13.3605 10.6641 14.2593 10.6539 15.3359C10.6489 16.0976 10.9688 16.7679 11.5629 17.2199L11.8321 17.4281V18.9007C11.8321 20.48 11.8422 20.541 12.1113 20.8609C12.4363 21.2519 13.0863 21.3738 13.5434 21.1351C13.7973 21.0031 14.0512 20.7085 14.1172 20.4648C14.1477 20.3683 14.168 19.6421 14.168 18.8601V17.4281L14.4371 17.2199C14.8332 16.9203 15.1531 16.4378 15.2801 15.9554C15.3156 15.8386 15.341 15.5644 15.341 15.346C15.341 14.2593 14.6403 13.3503 13.584 13.0711C13.2742 12.9847 12.6953 12.9898 12.3906 13.0711Z" fill="#595962"/>
</svg>
