<svg width="26" height="26" viewBox="0 0 26 26" fill="none" xmlns="http://www.w3.org/2000/svg">
<path d="M11.832 0.0507968C9.32343 0.294547 7.0078 1.21877 4.97655 2.78283C3.98632 3.54455 2.70155 4.97658 1.96014 6.14455C1.64022 6.64728 1.01561 7.92697 0.792175 8.53634C0.543347 9.21681 0.274207 10.2629 0.142175 11.0703C-0.0152466 12.0606 -0.0152466 13.9395 0.142175 14.9297C0.370691 16.3313 0.731238 17.4586 1.34569 18.7129C2.016 20.0789 2.71171 21.0488 3.82889 22.1711C4.95116 23.2883 5.92108 23.984 7.2871 24.6543C8.54139 25.2688 9.66874 25.6293 11.0703 25.8578C12.0605 26.0152 13.9394 26.0152 14.9297 25.8578C16.3312 25.6293 17.4586 25.2688 18.7129 24.6543C20.0789 23.984 21.0488 23.2883 22.1711 22.1711C23.2883 21.0488 23.984 20.0789 24.6543 18.7129C25.1012 17.8039 25.3246 17.2098 25.5683 16.2957C25.8883 15.077 25.9644 14.4117 25.9644 13C25.9644 11.5883 25.8883 10.9231 25.5683 9.70431C25.3246 8.79025 25.1012 8.19611 24.6543 7.28712C23.984 5.92111 23.2883 4.95119 22.1711 3.82892C21.0488 2.71173 20.0789 2.01603 18.7129 1.34572C17.4637 0.731265 16.3058 0.36564 14.9551 0.152359C14.2086 0.0355624 12.543 -0.020297 11.832 0.0507968ZM14.5691 1.95509C18.2355 2.49337 21.3535 4.75822 22.9988 8.07931C23.7859 9.65861 24.1363 11.1973 24.1363 13C24.1312 14.8383 23.7707 16.3871 22.9836 17.9512C22.2016 19.5 21.2164 20.7188 19.9062 21.7547L19.4746 22.0899L19.4441 19.9977C19.4137 17.8141 19.4137 17.8293 19.175 17.1641C18.7941 16.1231 17.7937 15.1481 16.7273 14.7723C16.3262 14.6352 15.7473 14.5235 15.3969 14.5235H15.1074L15.2851 14.4117C16.2246 13.843 16.7832 13.2844 17.2504 12.4414C17.9258 11.2277 18.0019 9.6383 17.4586 8.29259C17.0066 7.18556 15.9605 6.14455 14.8383 5.68751C14.1933 5.42853 13.8023 5.35744 13 5.35744C12.1976 5.35744 11.8066 5.42853 11.1617 5.68751C10.0394 6.14455 8.99335 7.18556 8.54139 8.29259C8.19608 9.14064 8.08436 10.202 8.25194 11.0195C8.56171 12.5328 9.30819 13.5637 10.7148 14.4117L10.8926 14.5235H10.6031C10.2527 14.5235 9.67382 14.6352 9.27264 14.7723C8.20624 15.1481 7.20585 16.1231 6.82499 17.1641C6.58632 17.8293 6.58632 17.8141 6.55585 19.9977L6.52538 22.0899L6.09374 21.7547C3.84413 19.9723 2.40194 17.4637 1.94999 14.5488C1.77225 13.3758 1.84843 11.7 2.13788 10.461C3.14335 6.16994 6.67772 2.80314 10.9941 2.03127C12.1773 1.81798 13.4316 1.79259 14.5691 1.95509ZM13.6348 7.23634C14.7519 7.46994 15.6863 8.40431 15.9199 9.5215C16.1332 10.5422 15.8387 11.5324 15.1074 12.2637C13.9293 13.4418 12.0707 13.4418 10.8926 12.2637C9.71444 11.0856 9.71444 9.22697 10.8926 8.04884C11.6238 7.31759 12.6141 7.02306 13.6348 7.23634ZM16.0164 16.4735C16.7476 16.7527 17.2656 17.2707 17.5043 17.9664C17.5754 18.1695 17.5906 18.5606 17.6058 20.6832L17.6262 23.1563L17.3824 23.2629C16.5851 23.6031 15.6863 23.857 14.6961 24.0246C13.7617 24.182 12.2383 24.182 11.3039 24.0246C10.3137 23.857 9.41483 23.6031 8.61757 23.2629L8.37382 23.1563L8.39413 20.6832C8.41444 17.9969 8.40936 18.007 8.70897 17.5043C8.87147 17.225 9.25741 16.8391 9.53163 16.6867C9.76014 16.5547 10.1461 16.4176 10.3848 16.3871C10.4711 16.3719 11.7152 16.3668 13.1523 16.3719C15.5644 16.382 15.7879 16.3871 16.0164 16.4735Z" fill="#595962"/>
</svg>
