<svg width="26" height="26" viewBox="0 0 26 26" fill="none" xmlns="http://www.w3.org/2000/svg">
<path d="M12.0859 0.0304819C11.9894 0.0406382 11.6898 0.076185 11.4258 0.101576C9.74999 0.284388 7.89647 0.914076 6.39842 1.80783C4.49413 2.94533 2.9453 4.49415 1.8078 6.39845C0.919128 7.88126 0.330066 9.60783 0.091394 11.4258C0.010144 12.0504 0.010144 13.9496 0.091394 14.5742C0.5078 17.7379 1.89921 20.4141 4.25546 22.6027C5.55546 23.8164 7.17538 24.7609 8.93749 25.3399C10.3289 25.802 11.4308 25.9695 13 25.9695C14.1578 25.9695 14.6707 25.9238 15.6914 25.7156C19.1902 24.9996 22.3133 22.7551 24.1922 19.6016C25.0808 18.1188 25.6699 16.3922 25.9086 14.5742C25.9898 13.9496 25.9898 12.0504 25.9086 11.4258C25.6699 9.60783 25.0808 7.88126 24.1922 6.39845C23.0547 4.49415 21.5058 2.94533 19.6015 1.80783C18.134 0.92931 16.382 0.330091 14.625 0.101576C14.1781 0.0406382 12.4008 -0.00506497 12.0859 0.0304819ZM14.8027 1.67072C16.0164 1.87384 16.9152 2.15822 18.0019 2.69142C19.4594 3.39728 20.7492 4.39767 21.7445 5.58595C24.3902 8.73947 25.1672 12.9594 23.8164 16.834C23.4152 17.9817 22.5976 19.3984 21.7445 20.4141C19.8605 22.6637 17.0015 24.1516 14.041 24.4258C11.0043 24.7051 7.96756 23.7402 5.58592 21.7445C3.33632 19.8606 1.84842 17.0016 1.57421 14.041C1.29491 11.0043 2.25975 7.96759 4.25546 5.58595C5.75858 3.78829 7.97264 2.4172 10.2629 1.86368C10.7656 1.73673 11.5984 1.59962 12.0859 1.55392C12.6344 1.50314 14.2086 1.57423 14.8027 1.67072Z" fill="#595962"/>
<path d="M8.54142 5.26094C8.06916 5.38789 7.82033 5.57578 6.85548 6.5457C5.98712 7.41406 5.89572 7.52578 5.70275 7.92187C5.41838 8.4957 5.33205 8.85117 5.2965 9.54179C5.07814 13.7719 10.136 19.5457 14.9805 20.5969C15.5746 20.7289 16.8442 20.7289 17.3164 20.6019C17.7734 20.4801 18.2305 20.2566 18.5758 19.9926C19.1039 19.5812 20.4242 18.1848 20.5817 17.8648C20.7899 17.4535 20.8559 17.0016 20.7797 16.5445C20.6731 15.9199 20.5004 15.6711 19.4492 14.6199C18.6672 13.8328 18.4539 13.65 18.1797 13.5129C17.7074 13.2844 17.2656 13.2234 16.7731 13.325C16.2652 13.4266 15.9555 13.6195 15.3766 14.2035L14.9043 14.6758L13.1168 12.8883L11.3293 11.1008L11.8473 10.5625C12.4262 9.96328 12.6141 9.65351 12.6902 9.14062C12.7613 8.7039 12.6902 8.24687 12.482 7.82031C12.35 7.54609 12.1672 7.33281 11.3801 6.5457C10.6438 5.80429 10.3695 5.56562 10.1309 5.44883C9.60275 5.17969 9.06447 5.11875 8.54142 5.26094ZM9.32853 6.7539C9.4047 6.78437 9.84142 7.18047 10.2985 7.63242C11.4867 8.8207 11.4867 8.80546 10.3848 9.90234C9.97345 10.3086 9.60783 10.6996 9.5672 10.7758C9.4758 10.9535 9.4758 11.243 9.57228 11.4461C9.6129 11.5324 10.7402 12.6953 12.0758 14.0258C14.1984 16.1484 14.5234 16.448 14.691 16.4785C15.1074 16.5547 15.1938 16.5039 16.0723 15.6457C16.9152 14.818 17.0117 14.7519 17.3418 14.8129C17.55 14.8535 19.1699 16.448 19.2512 16.6918C19.3629 17.0422 19.307 17.1336 18.393 18.0375C17.9258 18.4996 17.4738 18.916 17.3926 18.9566C16.2551 19.5305 14.2137 19.048 12.2129 17.7328C9.06447 15.666 6.69298 12.0961 6.81994 9.62304C6.86056 8.78007 6.93166 8.64804 7.86603 7.69843C8.86642 6.68281 8.9629 6.62187 9.32853 6.7539Z" fill="#595962"/>
</svg>
