<svg width="26" height="26" viewBox="0 0 26 26" fill="none" xmlns="http://www.w3.org/2000/svg">
<path d="M11.375 0.0761728C9.12031 0.35547 7.04844 1.19336 5.17969 2.57969C4.41797 3.14844 3.14844 4.41797 2.57969 5.17969C1.17812 7.06875 0.350391 9.13555 0.0710937 11.4258C-0.0152344 12.1773 -0.0152344 13.8227 0.0710937 14.5742C0.350391 16.8645 1.17812 18.9313 2.57969 20.8203C3.14844 21.582 4.41797 22.8516 5.17969 23.4203C7.06875 24.8219 9.13555 25.6496 11.4258 25.9289C12.1773 26.0152 13.8227 26.0152 14.5742 25.9289C16.8645 25.6496 18.9312 24.8219 20.8203 23.4203C21.582 22.8516 22.8516 21.582 23.4203 20.8203C24.8219 18.9313 25.6496 16.8645 25.9289 14.5742C26.0152 13.8227 26.0152 12.1773 25.9289 11.4258C25.6496 9.13555 24.8219 7.06875 23.4203 5.17969C22.8516 4.41797 21.582 3.14844 20.8203 2.57969C18.9312 1.17813 16.8645 0.350392 14.5742 0.0710947C13.848 -0.0152334 12.0961 -0.0101553 11.375 0.0761728ZM14.6098 1.6707C19.6676 2.41719 23.5828 6.33242 24.3293 11.3902C24.4613 12.3094 24.4613 13.6906 24.3293 14.6098C23.5828 19.6676 19.6676 23.5828 14.6098 24.3293C13.6906 24.4613 12.3094 24.4613 11.3902 24.3293C6.33242 23.5828 2.41719 19.6676 1.6707 14.6098C1.53867 13.6906 1.53867 12.3094 1.6707 11.3902C2.41211 6.35274 6.31211 2.4375 11.3445 1.67578C12.223 1.54375 13.7211 1.54375 14.6098 1.6707Z" fill="#595962"/>
<path d="M8.7648 5.18478C8.14527 5.27618 7.88628 5.44884 6.87573 6.46446C5.92105 7.42423 5.70776 7.70861 5.49956 8.30275C5.27105 8.93751 5.20503 9.55197 5.2812 10.3137C5.50464 12.5125 6.8148 14.9348 8.92222 17.0371C10.8062 18.9211 12.9593 20.1957 15.0007 20.6274C15.3867 20.7086 15.6863 20.734 16.2246 20.734C17.0726 20.7289 17.5043 20.6324 18.1441 20.3024C18.5097 20.1145 18.6722 19.9824 19.505 19.1496C20.673 17.9867 20.8304 17.7125 20.8304 16.8797C20.8254 16.0774 20.5664 15.6457 19.3832 14.4879C18.6722 13.7922 18.4945 13.6449 18.1593 13.4824C17.8242 13.3149 17.7074 13.2844 17.3367 13.2641C16.5597 13.2235 16.1433 13.4063 15.4121 14.1223L14.8992 14.6199L13.1371 12.8578L11.38 11.0957L11.8777 10.5828C12.1519 10.3035 12.4312 9.97345 12.4921 9.85666C12.8578 9.13556 12.8324 8.35353 12.416 7.63751C12.2128 7.28204 10.5574 5.64181 10.207 5.44884C9.76011 5.20001 9.27261 5.11368 8.7648 5.18478ZM10.2425 7.63243C11.1617 8.54142 11.2328 8.64298 11.1464 8.97306C11.1261 9.05939 10.8062 9.42501 10.3339 9.90236C9.46558 10.786 9.38941 10.9129 9.49605 11.3242C9.54683 11.5324 9.79058 11.7863 11.9996 14.0004C14.1629 16.1637 14.4726 16.4531 14.6656 16.5039C15.082 16.6106 15.2242 16.5293 16.0722 15.6914C16.4937 15.2801 16.8847 14.9145 16.9457 14.884C17.098 14.8078 17.2961 14.8129 17.4586 14.8992C17.6972 15.0262 19.1902 16.5649 19.2359 16.7324C19.3273 17.0473 19.2308 17.1996 18.4132 18.0121C17.5347 18.8906 17.2757 19.0481 16.6054 19.1446C14.6402 19.4239 11.4511 17.6516 9.24214 15.0567C7.60699 13.127 6.64722 10.857 6.85542 9.39455C6.95191 8.72423 7.10933 8.46525 7.98784 7.58673C8.78003 6.78947 8.93238 6.6879 9.24214 6.74376C9.31832 6.759 9.70425 7.09923 10.2425 7.63243Z" fill="#595962"/>
</svg>
