<svg width="26" height="26" viewBox="0 0 26 26" fill="none" xmlns="http://www.w3.org/2000/svg">
<g clip-path="url(#clip0_14_141)">
<path d="M11.4766 0.101588C6.80471 0.888697 3.4176 4.82424 3.39221 9.49612C3.39221 10.2883 3.44299 10.7555 3.63088 11.5528C3.9051 12.7207 4.35198 13.8074 5.02229 14.9399C5.42854 15.6254 11.8117 25.2891 12.0352 25.5481C12.5532 26.1625 13.4469 26.1625 13.9649 25.5481C14.1883 25.2891 20.5664 15.6356 20.9778 14.9449C21.8055 13.5434 22.3286 12.1114 22.5469 10.6387C22.6332 10.0852 22.618 8.87151 22.5215 8.23167C22.2067 6.12424 21.3079 4.33167 19.8149 2.82854C18.3524 1.35081 16.575 0.436744 14.4879 0.101588C13.6754 -0.0304434 12.2586 -0.0304434 11.4766 0.101588ZM14.1223 1.24924C16.0317 1.51331 17.7278 2.37659 19.0532 3.74768C20.3176 5.06292 21.059 6.57112 21.3586 8.42971C21.4602 9.07463 21.4348 10.3239 21.3028 10.918C21.0438 12.1012 20.602 13.2184 19.952 14.3203C19.3629 15.3106 13.0711 24.8067 13 24.8067C12.9289 24.8067 6.63714 15.3106 6.04807 14.3203C5.39807 13.2184 4.95628 12.1012 4.69729 10.918C4.56526 10.3239 4.53987 9.07463 4.64143 8.42971C5.09846 5.57073 6.75901 3.29573 9.33362 2.01096C10.7301 1.31018 12.5328 1.02581 14.1223 1.24924Z" fill="#595962"/>
<path d="M11.9894 4.59578C11.2937 4.7532 10.725 4.98172 10.2578 5.29656C8.87147 6.23093 8.07421 7.53601 7.92694 9.11531C7.66796 11.9489 9.63319 14.3458 12.4871 14.6759C14.2949 14.8891 16.184 14.0106 17.2301 12.472C18.3168 10.8723 18.3879 8.68367 17.4027 7.02312C16.7324 5.88562 15.6914 5.0782 14.3965 4.69226C14.0004 4.57547 13.8277 4.55515 13.1269 4.53992C12.548 4.52468 12.223 4.545 11.9894 4.59578ZM14.1426 5.86023C15.2141 6.21062 16.0164 6.90125 16.5039 7.89656C16.834 8.58211 16.9305 9.03406 16.9 9.79578C16.8797 10.2528 16.8441 10.4762 16.7375 10.7911C16.1789 12.4466 14.7113 13.513 13 13.513C11.2887 13.513 9.82108 12.4466 9.26249 10.7911C9.07968 10.2427 9.03905 9.38953 9.16093 8.80554C9.27265 8.29265 9.67382 7.47508 9.98866 7.10437C10.5828 6.41375 11.3293 5.96179 12.2129 5.75867C12.7004 5.64695 13.6398 5.69265 14.1426 5.86023Z" fill="#595962"/>
</g>
<defs>
<clipPath id="clip0_14_141">
<rect width="26" height="26" fill="white"/>
</clipPath>
</defs>
</svg>
