<svg width="26" height="26" viewBox="0 0 26 26" fill="none" xmlns="http://www.w3.org/2000/svg">
<path d="M1.88398 4.25044C1.69102 4.43325 1.65039 4.55513 0.842969 6.98247C0.248828 8.76997 0 9.58755 0 9.75005C0 10.0446 0.787109 15.5747 0.853125 15.7422C0.929297 15.9352 1.11719 16.0875 2.84375 17.3774C3.88984 18.1594 4.51445 18.5961 4.64648 18.6317C4.77344 18.6672 5.40312 18.6875 6.31719 18.6875H7.78477L8.15039 19.0379C8.58711 19.4594 8.69883 19.5 9.52656 19.5H10.141L10.8672 20.5969C11.2684 21.1961 11.6695 21.7395 11.7559 21.8004C11.898 21.902 11.9793 21.9122 12.8172 21.9274C14.4168 21.9579 14.3609 21.9934 14.8484 20.536L15.1887 19.5102L15.6355 19.4899C16.1941 19.4645 16.3668 19.3731 16.6004 18.977L16.773 18.6875H17.9918H19.2156L20.4141 19.8758C22.0492 21.5008 21.9324 21.4907 23.3187 20.1196C23.8113 19.6321 24.2531 19.1547 24.2988 19.0684C24.3953 18.8551 24.3953 18.52 24.2937 18.327C24.2531 18.2407 23.9637 17.7938 23.659 17.3317C23.3543 16.8747 23.1055 16.4633 23.1055 16.4227C23.1055 16.2653 23.2629 16.0571 23.7402 15.5899C24.0094 15.3258 24.2633 15.0465 24.3039 14.9704C24.3598 14.8637 24.375 14.5743 24.375 13.6094V12.3907L25.1875 10.7657L26 9.14067V7.23638V5.327L25.802 5.11372L25.5988 4.90044L24.9793 4.88521C24.6391 4.87505 24.2785 4.88013 24.177 4.90044C24.0195 4.93091 23.7047 5.22036 21.9832 6.93677L19.9723 8.94263L19.6523 8.92739L19.3273 8.91216L18.982 7.52075C18.7687 6.66763 18.591 6.07349 18.5301 5.98208C18.3371 5.71294 18.2203 5.68755 17.1895 5.68755H16.25V5.18989C16.25 4.60591 16.1484 4.32661 15.8844 4.16411C15.7168 4.06255 15.6457 4.06255 8.89687 4.06255H2.07695L1.88398 4.25044ZM14.6859 6.18013C14.6961 6.68286 14.7164 6.79966 14.8027 6.91646C15.0262 7.21099 15.1176 7.23638 16.2449 7.26177L17.2859 7.28716L17.6211 8.63794C17.809 9.37935 18.002 10.0598 18.0578 10.1461C18.2406 10.461 18.4437 10.5118 19.5152 10.5118C20.2617 10.5118 20.5105 10.4965 20.6578 10.4356C20.7848 10.3797 21.4398 9.76021 22.6637 8.54146L24.4766 6.72857V7.67817V8.62778L23.6539 10.2833L22.8262 11.9387L22.8109 13.1168L22.7957 14.295L22.3488 14.752C21.8461 15.2649 21.6684 15.5696 21.577 16.0672C21.5262 16.3313 21.5262 16.4735 21.577 16.7375C21.648 17.1438 21.7445 17.3317 22.1965 18.0122C22.3895 18.2965 22.5469 18.5504 22.5469 18.5708C22.5469 18.5961 22.4148 18.7434 22.2523 18.9059L21.9629 19.1954L20.998 18.2254C20.4648 17.6922 19.9723 17.225 19.8961 17.1844C19.7844 17.1286 19.4137 17.1133 17.8852 17.1133C16.0215 17.1133 16.0113 17.1133 15.8387 17.2301C15.7371 17.2961 15.6 17.4688 15.5137 17.6364L15.3613 17.9258H14.8891C14.3762 17.9258 14.1984 17.9817 14.0258 18.2051C13.9648 18.2762 13.7668 18.7942 13.584 19.3528L13.2437 20.3633H12.934L12.6191 20.3583L11.8828 19.2563C11.4004 18.5352 11.0855 18.1137 10.9738 18.0426C10.8164 17.936 10.7453 17.9258 10.0344 17.9258H9.2625L8.9375 17.5907C8.75469 17.4079 8.54648 17.225 8.47031 17.1844C8.35859 17.1286 8.02344 17.1133 6.73867 17.1133H5.14414L3.72734 16.052L2.31055 14.9856L1.93984 12.3907L1.56914 9.79067L2.26992 7.68833L2.9707 5.58599H8.8207H14.6656L14.6859 6.18013Z" fill="#595962"/>
</svg>
