<svg width="26" height="26" viewBox="0 0 26 26" fill="none" xmlns="http://www.w3.org/2000/svg">
<path d="M1.06638 2.50859C1.107 2.54922 3.28044 4.41289 5.89059 6.64727L10.6386 10.7148H12.1875L13.7363 10.7098L18.53 6.60156C21.1656 4.3418 23.334 2.47813 23.3492 2.46289C23.3644 2.44766 18.3422 2.4375 12.1875 2.4375C2.56442 2.4375 1.00544 2.44766 1.06638 2.50859Z" fill="#595962"/>
<path d="M0 12.477C0 21.2977 0 21.4043 0.101562 21.5719C0.157422 21.6633 0.274219 21.7801 0.365625 21.8359C0.528125 21.9324 0.629687 21.9375 3.59531 21.9375H6.65234V17.3926C6.65234 14.2086 6.66758 12.7715 6.7082 12.5836C6.87578 11.8016 7.43945 11.1414 8.16562 10.8875C8.30781 10.8367 8.42461 10.7758 8.41953 10.7555C8.4043 10.7148 0.0558594 3.55469 0.0203125 3.55469C0.0101562 3.55469 0 7.57148 0 12.477Z" fill="#595962"/>
<path d="M20.3125 6.9875C18.1187 8.87148 16.2449 10.4812 16.1484 10.5625L15.9707 10.7098L20.1754 10.7148H24.375V7.13477C24.375 5.16445 24.3598 3.55469 24.3395 3.55977C24.3141 3.55977 22.5062 5.10352 20.3125 6.9875Z" fill="#595962"/>
<path d="M8.48047 12.35C8.38906 12.416 8.27227 12.548 8.22148 12.6445C8.13008 12.8121 8.125 13.0507 8.125 17.875V22.9328L8.2418 23.1562C8.30781 23.2933 8.41953 23.4101 8.53125 23.471C8.69883 23.5574 9.07461 23.5625 17.0777 23.5625C26.1727 23.5625 25.5684 23.5828 25.8477 23.2832L25.9746 23.146L25.9898 17.9613C26.0051 12.1875 26.0305 12.5632 25.6699 12.3398C25.5074 12.2382 25.3855 12.2382 17.0777 12.2382H8.64805L8.48047 12.35ZM14.1477 15.214C14.2391 15.2597 14.366 15.3765 14.427 15.473C14.6402 15.8183 14.6098 15.9199 13.7668 17.6058C13.3453 18.4539 13 19.1597 13 19.1699C13 19.1851 13.2082 19.1953 13.457 19.1953C14.1984 19.1953 14.4777 19.3781 14.5133 19.896C14.5336 20.1601 14.5184 20.2058 14.3965 20.3531C14.1426 20.6578 14.0867 20.6679 12.7816 20.6679C11.634 20.6679 11.5883 20.6628 11.4258 20.5562C11.1668 20.3785 11.0551 20.1957 11.0551 19.9468C11.0551 19.7691 11.1922 19.4492 11.827 18.1949C12.2484 17.3468 12.5937 16.646 12.5937 16.6359C12.5937 16.6257 12.3602 16.6105 12.0707 16.5953C11.6746 16.5851 11.5121 16.5546 11.4055 16.4886C10.9484 16.1839 10.9637 15.4476 11.441 15.214C11.6848 15.0972 13.8937 15.0921 14.1477 15.214ZM17.0117 15.2242C17.1285 15.28 17.2301 15.3918 17.3062 15.539C17.418 15.7625 17.418 15.7828 17.418 17.9003C17.418 19.8859 17.4078 20.0484 17.3215 20.2464C17.0828 20.7695 16.3516 20.8 16.0469 20.2972C15.9504 20.1449 15.9453 20.0281 15.9453 17.9003C15.9453 15.7625 15.9504 15.6609 16.0469 15.4984C16.2551 15.1582 16.6562 15.0414 17.0117 15.2242ZM21.7395 15.275C22.3031 15.4984 22.7398 15.9351 22.9582 16.4886C23.1207 16.9 23.1207 17.621 22.9633 18.0476C22.8211 18.4285 22.5164 18.8347 22.2117 19.0328C21.7902 19.3121 21.4652 19.4085 20.8355 19.439L20.2617 19.4644V19.764C20.2617 20.1398 20.1703 20.3632 19.952 20.5207C19.7184 20.6832 19.3375 20.6882 19.1141 20.5308C18.7891 20.2972 18.7891 20.2972 18.7891 17.8902C18.7891 15.4628 18.784 15.4832 19.1445 15.2445C19.3172 15.1277 19.3375 15.1277 20.3887 15.1429C21.3484 15.1632 21.4855 15.1734 21.7395 15.275Z" fill="#595962"/>
<path d="M20.2617 17.2859V17.9766H20.668C21.3738 17.9766 21.6582 17.7531 21.6176 17.225C21.6023 17.0016 21.5668 16.9254 21.4348 16.7934C21.2824 16.6359 21.2621 16.6309 20.7695 16.6156L20.2617 16.5953V17.2859Z" fill="#595962"/>
</svg>
